<mxfile host="app.diagrams.net" modified="2024-03-21T20:52:58.417Z" agent="Mozilla/5.0 (Windows NT 10.0; Win64; x64) AppleWebKit/537.36 (KHTML, like Gecko) Chrome/122.0.0.0 Safari/537.36" etag="GU2Xs24i4XXTJ975_Mab" version="24.0.7" type="github">
  <diagram name="PÃ¡gina-1" id="mG2h8wp1dM_tcLmFLIiA">
    <mxGraphModel dx="1100" dy="575" grid="1" gridSize="10" guides="1" tooltips="1" connect="1" arrows="1" fold="1" page="1" pageScale="1" pageWidth="827" pageHeight="1169" math="0" shadow="0">
      <root>
        <mxCell id="0" />
        <mxCell id="1" parent="0" />
        <mxCell id="c7bKC4uYb9Udx0cf_Hwb-14" style="edgeStyle=orthogonalEdgeStyle;rounded=0;orthogonalLoop=1;jettySize=auto;html=1;exitX=1;exitY=0.25;exitDx=0;exitDy=0;entryX=0;entryY=0.5;entryDx=0;entryDy=0;" edge="1" parent="1" source="c7bKC4uYb9Udx0cf_Hwb-1" target="c7bKC4uYb9Udx0cf_Hwb-10">
          <mxGeometry relative="1" as="geometry" />
        </mxCell>
        <mxCell id="c7bKC4uYb9Udx0cf_Hwb-1" value="entrada do site" style="swimlane;whiteSpace=wrap;html=1;" vertex="1" parent="1">
          <mxGeometry x="90" y="585" width="200" height="165" as="geometry" />
        </mxCell>
        <mxCell id="c7bKC4uYb9Udx0cf_Hwb-2" value="Nome: (VAR, 50)" style="text;html=1;align=center;verticalAlign=middle;resizable=0;points=[];autosize=1;strokeColor=none;fillColor=none;" vertex="1" parent="c7bKC4uYb9Udx0cf_Hwb-1">
          <mxGeometry y="45" width="110" height="30" as="geometry" />
        </mxCell>
        <mxCell id="c7bKC4uYb9Udx0cf_Hwb-3" value="E-mail: (VAR, 30)" style="text;html=1;align=center;verticalAlign=middle;resizable=0;points=[];autosize=1;strokeColor=none;fillColor=none;" vertex="1" parent="c7bKC4uYb9Udx0cf_Hwb-1">
          <mxGeometry x="-5" y="85" width="120" height="30" as="geometry" />
        </mxCell>
        <mxCell id="c7bKC4uYb9Udx0cf_Hwb-4" value="Senha: (VAR, 15)" style="text;html=1;align=center;verticalAlign=middle;resizable=0;points=[];autosize=1;strokeColor=none;fillColor=none;" vertex="1" parent="c7bKC4uYb9Udx0cf_Hwb-1">
          <mxGeometry x="-5" y="125" width="120" height="30" as="geometry" />
        </mxCell>
        <mxCell id="c7bKC4uYb9Udx0cf_Hwb-10" value="FEEDBACK POP UP" style="swimlane;fontStyle=0;childLayout=stackLayout;horizontal=1;startSize=30;horizontalStack=0;resizeParent=1;resizeParentMax=0;resizeLast=0;collapsible=1;marginBottom=0;whiteSpace=wrap;html=1;" vertex="1" parent="1">
          <mxGeometry x="380" y="510" width="230" height="140" as="geometry" />
        </mxCell>
        <mxCell id="c7bKC4uYb9Udx0cf_Hwb-12" value="Nome: (VAR, 50)" style="text;strokeColor=none;fillColor=none;align=center;verticalAlign=middle;spacingLeft=4;spacingRight=4;overflow=hidden;points=[[0,0.5],[1,0.5]];portConstraint=eastwest;rotatable=0;whiteSpace=wrap;html=1;" vertex="1" parent="c7bKC4uYb9Udx0cf_Hwb-10">
          <mxGeometry y="30" width="230" height="30" as="geometry" />
        </mxCell>
        <mxCell id="c7bKC4uYb9Udx0cf_Hwb-13" value="E-mail: (VAR, 50)" style="text;strokeColor=none;fillColor=none;align=center;verticalAlign=middle;spacingLeft=4;spacingRight=4;overflow=hidden;points=[[0,0.5],[1,0.5]];portConstraint=eastwest;rotatable=0;whiteSpace=wrap;html=1;" vertex="1" parent="c7bKC4uYb9Udx0cf_Hwb-10">
          <mxGeometry y="60" width="230" height="50" as="geometry" />
        </mxCell>
        <mxCell id="c7bKC4uYb9Udx0cf_Hwb-15" value="Cometario: (VAR, 150)" style="text;html=1;align=center;verticalAlign=middle;resizable=0;points=[];autosize=1;strokeColor=none;fillColor=none;" vertex="1" parent="c7bKC4uYb9Udx0cf_Hwb-10">
          <mxGeometry y="110" width="230" height="30" as="geometry" />
        </mxCell>
      </root>
    </mxGraphModel>
  </diagram>
</mxfile>
